<svg xmlns="http://www.w3.org/2000/svg"    
   width="308.7612359841165"
   height="304.915625"
   viewBox="0 0 2000 1500" 
   version="1.1"><path d="M 1602 749.500 L 1602 821.043 1621.250 820.772 L 1640.500 820.500 1640.500 749.500 L 1640.500 678.500 1621.250 678.228 L 1602 677.957 1602 749.500 M 1650 749.500 L 1650 820 1669 820 L 1688 820 1688 749.500 L 1688 679 1669 679 L 1650 679 1650 749.500 M 1173.813 699.519 C 1160.292 702.211, 1151.728 707.768, 1147.369 716.679 C 1145.088 721.340, 1144.642 723.543, 1144.692 729.887 C 1144.763 738.968, 1146.490 743.490, 1151.982 748.982 C 1157.775 754.775, 1162.593 756.813, 1181.913 761.645 C 1191.503 764.043, 1200.170 766.749, 1201.174 767.658 C 1203.604 769.857, 1203.485 773.251, 1200.896 775.595 C 1199.144 777.182, 1197.234 777.500, 1189.473 777.500 C 1178.558 777.500, 1175.134 775.810, 1173.574 769.654 L 1172.647 766 1157.684 766 L 1142.720 766 1143.300 771.617 C 1144.044 778.824, 1148.119 787.128, 1152.814 791 C 1165.620 801.563, 1199.122 804.232, 1217.402 796.146 C 1223.618 793.397, 1230.403 786.820, 1232.794 781.227 C 1236.893 771.640, 1236.484 759.288, 1231.843 752.500 C 1226.522 744.717, 1218.320 740.840, 1196.870 735.971 C 1182.818 732.780, 1178.457 731.016, 1177.548 728.152 C 1176.023 723.348, 1180.932 720, 1189.500 720 C 1196.637 720, 1200.504 721.987, 1202.133 726.490 L 1203.402 730 1218.201 730 L 1233 730 1233 727.682 C 1233 722.781, 1229.787 714.770, 1226.254 710.859 C 1216.745 700.334, 1194.204 695.459, 1173.813 699.519 M 256 749.453 L 256 799 272 799 L 288 799 288 781 L 288 763 293.830 763 L 299.660 763 308.417 781 L 317.175 799 335.178 799 L 353.181 799 349.219 791.750 C 347.041 787.763, 342.038 778.364, 338.102 770.865 L 330.947 757.230 333.586 756.568 C 337.832 755.502, 346.406 746.191, 348.324 740.563 C 350.435 734.367, 350.470 725.736, 348.408 719.684 C 346.233 713.301, 339.273 705.820, 332.779 702.886 C 327.578 700.535, 326.973 700.496, 291.750 700.203 L 256 699.906 256 749.453 M 394.221 702.750 C 392.669 707.128, 365.472 781.644, 362.103 790.750 L 359.050 799 375.428 799 L 391.805 799 393.931 792 L 396.058 785 413.380 785 L 430.702 785 432.713 791.750 L 434.724 798.500 451.728 798.773 L 468.731 799.046 450.677 749.523 L 432.623 700 413.909 700 L 395.196 700 394.221 702.750 M 481 749.500 L 481 799 497 799 L 513 799 513 780.500 L 513 762 530.500 762 L 548 762 548 780.500 L 548 799 564 799 L 580 799 580 749.500 L 580 700 564 700 L 548 700 548 718 L 548 736 530.500 736 L 513 736 513 718 L 513 700 497 700 L 481 700 481 749.500 M 627.530 701.750 C 626.446 704.523, 600.199 776.355, 595.924 788.250 L 592.060 799 608.381 799 L 624.702 799 626.713 792.250 L 628.724 785.500 646.171 785.228 L 663.617 784.955 665.564 791.728 L 667.510 798.500 684.255 798.774 C 693.465 798.925, 701.003 798.700, 701.007 798.274 C 701.011 797.848, 693.024 775.565, 683.257 748.756 L 665.500 700.011 646.857 700.006 C 630.026 700.001, 628.147 700.170, 627.530 701.750 M 714 749.500 L 714 799 740.840 799 C 764.308 799, 768.652 798.751, 775.415 797.022 C 797.092 791.478, 806.903 778.621, 808.646 753.475 C 810.119 732.226, 802.289 714.374, 788.113 706.658 C 777.781 701.035, 770.434 700, 740.840 700 L 714 700 714 749.500 M 826.015 732.250 C 826.032 768.758, 826.698 773.907, 832.549 782.752 C 841.036 795.583, 858.064 801.943, 880.500 800.663 C 899.851 799.559, 912.679 793.229, 919.642 781.348 C 924.540 772.989, 924.975 769.077, 924.988 733.250 L 925 700 909 700 L 893 700 893 731.788 C 893 762.782, 892.944 763.686, 890.750 767.980 C 887.266 774.799, 884.220 776.500, 875.500 776.500 C 866.780 776.500, 863.734 774.799, 860.250 767.980 C 858.056 763.686, 858 762.782, 858 731.788 L 858 700 842 700 L 826 700 826.015 732.250 M 947 749.500 L 947 799 988.500 799 L 1030 799 1030 786.517 L 1030 774.034 1004.250 773.767 L 978.500 773.500 978.238 736.750 L 977.975 700 962.488 700 L 947 700 947 749.500 M 1092 749.500 L 1092 799 1108 799 L 1124 799 1124 749.500 L 1124 700 1108 700 L 1092 700 1092 749.500 M 1252 749.500 L 1252 799 1293.500 799 L 1335 799 1335 786.500 L 1335 774 1309.500 774 L 1284 774 1284 737 L 1284 700 1268 700 L 1252 700 1252 749.500 M 1374.482 701.250 C 1358.315 745.658, 1339.976 795.936, 1339.466 797.250 C 1338.835 798.873, 1339.978 799, 1355.249 799 L 1371.713 799 1373.643 792.250 L 1375.573 785.500 1393.016 785.500 L 1410.459 785.500 1412.479 792.244 L 1414.500 798.988 1431.323 798.994 C 1445.098 798.999, 1448.088 798.751, 1447.823 797.624 C 1447.645 796.867, 1439.625 774.600, 1430 748.143 L 1412.500 700.039 1393.719 700.019 C 1379.588 700.005, 1374.825 700.310, 1374.482 701.250 M 1458 749.500 L 1458 799 1473 799 L 1488 799 1488 778.174 C 1488 766.719, 1487.513 752.506, 1486.917 746.590 C 1486.322 740.673, 1486.024 735.642, 1486.256 735.411 C 1486.488 735.179, 1489.039 743.654, 1491.926 754.245 C 1494.814 764.835, 1498.776 779.237, 1500.731 786.250 L 1504.286 799 1516.893 798.995 L 1529.500 798.990 1538.428 766.006 C 1543.338 747.865, 1547.505 733.171, 1547.686 733.353 C 1547.868 733.535, 1547.571 737.917, 1547.026 743.092 C 1546.481 748.266, 1546.027 762.962, 1546.017 775.750 L 1546 799 1562 799 L 1578 799 1578 749.500 L 1578 700 1556.047 700 L 1534.094 700 1533.211 703.250 C 1532.725 705.038, 1529.488 717.525, 1526.017 731 C 1522.547 744.475, 1519.435 755.811, 1519.103 756.191 C 1518.772 756.571, 1515.173 744.084, 1511.106 728.441 L 1503.713 700 1480.856 700 L 1458 700 1458 749.500 M 288 731.395 L 288 741 299.050 741 C 311.931 741, 315.242 739.828, 316.947 734.661 C 318.245 730.727, 317.303 727.467, 314.010 724.500 C 312.110 722.788, 310.077 722.449, 299.895 722.145 L 288 721.789 288 731.395 M 746 749.500 L 746 775 754.343 775 C 764.724 775, 770.237 772.532, 773.423 766.460 C 775.216 763.041, 775.500 760.724, 775.500 749.500 C 775.500 738.340, 775.209 735.934, 773.442 732.500 C 770.344 726.478, 764.761 724, 754.288 724 L 746 724 746 749.500 M 410.148 737.655 C 405.821 751.870, 403 761.620, 403 762.358 C 403 762.711, 407.755 763, 413.567 763 C 423.175 763, 424.085 762.841, 423.583 761.250 C 423.280 760.288, 421.003 752.566, 418.523 744.091 C 416.043 735.615, 413.819 728.485, 413.579 728.246 C 413.340 728.007, 411.796 732.241, 410.148 737.655 M 645.572 729.107 C 643.774 734.381, 636 761.017, 636 761.903 C 636 762.630, 639.578 763, 646.607 763 C 655.156 763, 657.112 762.735, 656.690 761.636 C 656.402 760.885, 654.062 753.123, 651.488 744.386 C 648.915 735.649, 646.638 728.323, 646.429 728.107 C 646.219 727.891, 645.833 728.341, 645.572 729.107 M 1392.812 728.549 C 1391.566 730.685, 1382.698 762.031, 1383.198 762.532 C 1383.496 762.829, 1388.235 762.944, 1393.729 762.786 L 1403.719 762.500 1398.855 746 C 1396.181 736.925, 1393.851 729.072, 1393.679 728.549 C 1393.481 727.948, 1393.162 727.948, 1392.812 728.549" stroke="none" fill="#3f8d80" fill-rule="evenodd"/><path d="M 0 750 L 0 1500.001 1000.250 1499.750 L 2000.500 1499.500 2000.751 749.750 L 2001.001 0 1000.501 0 L 0 0 0 750 M 0.497 750.500 C 0.497 1163, 0.611 1331.600, 0.750 1125.168 C 0.889 918.735, 0.889 581.235, 0.750 375.168 C 0.611 169.100, 0.497 338, 0.497 750.500 M 1602 749.500 L 1602 821.043 1621.250 820.772 L 1640.500 820.500 1640.500 749.500 L 1640.500 678.500 1621.250 678.228 L 1602 677.957 1602 749.500 M 1650 749.500 L 1650 820 1669 820 L 1688 820 1688 749.500 L 1688 679 1669 679 L 1650 679 1650 749.500 M 1173.813 699.519 C 1160.292 702.211, 1151.728 707.768, 1147.369 716.679 C 1145.088 721.340, 1144.642 723.543, 1144.692 729.887 C 1144.763 738.968, 1146.490 743.490, 1151.982 748.982 C 1157.775 754.775, 1162.593 756.813, 1181.913 761.645 C 1191.503 764.043, 1200.170 766.749, 1201.174 767.658 C 1203.604 769.857, 1203.485 773.251, 1200.896 775.595 C 1199.144 777.182, 1197.234 777.500, 1189.473 777.500 C 1178.558 777.500, 1175.134 775.810, 1173.574 769.654 L 1172.647 766 1157.684 766 L 1142.720 766 1143.300 771.617 C 1144.044 778.824, 1148.119 787.128, 1152.814 791 C 1165.620 801.563, 1199.122 804.232, 1217.402 796.146 C 1223.618 793.397, 1230.403 786.820, 1232.794 781.227 C 1236.893 771.640, 1236.484 759.288, 1231.843 752.500 C 1226.522 744.717, 1218.320 740.840, 1196.870 735.971 C 1182.818 732.780, 1178.457 731.016, 1177.548 728.152 C 1176.023 723.348, 1180.932 720, 1189.500 720 C 1196.637 720, 1200.504 721.987, 1202.133 726.490 L 1203.402 730 1218.201 730 L 1233 730 1233 727.682 C 1233 722.781, 1229.787 714.770, 1226.254 710.859 C 1216.745 700.334, 1194.204 695.459, 1173.813 699.519 M 256 749.453 L 256 799 272 799 L 288 799 288 781 L 288 763 293.830 763 L 299.660 763 308.417 781 L 317.175 799 335.178 799 L 353.181 799 349.219 791.750 C 347.041 787.763, 342.038 778.364, 338.102 770.865 L 330.947 757.230 333.586 756.568 C 337.832 755.502, 346.406 746.191, 348.324 740.563 C 350.435 734.367, 350.470 725.736, 348.408 719.684 C 346.233 713.301, 339.273 705.820, 332.779 702.886 C 327.578 700.535, 326.973 700.496, 291.750 700.203 L 256 699.906 256 749.453 M 394.221 702.750 C 392.669 707.128, 365.472 781.644, 362.103 790.750 L 359.050 799 375.428 799 L 391.805 799 393.931 792 L 396.058 785 413.380 785 L 430.702 785 432.713 791.750 L 434.724 798.500 451.728 798.773 L 468.731 799.046 450.677 749.523 L 432.623 700 413.909 700 L 395.196 700 394.221 702.750 M 481 749.500 L 481 799 497 799 L 513 799 513 780.500 L 513 762 530.500 762 L 548 762 548 780.500 L 548 799 564 799 L 580 799 580 749.500 L 580 700 564 700 L 548 700 548 718 L 548 736 530.500 736 L 513 736 513 718 L 513 700 497 700 L 481 700 481 749.500 M 627.530 701.750 C 626.446 704.523, 600.199 776.355, 595.924 788.250 L 592.060 799 608.381 799 L 624.702 799 626.713 792.250 L 628.724 785.500 646.171 785.228 L 663.617 784.955 665.564 791.728 L 667.510 798.500 684.255 798.774 C 693.465 798.925, 701.003 798.700, 701.007 798.274 C 701.011 797.848, 693.024 775.565, 683.257 748.756 L 665.500 700.011 646.857 700.006 C 630.026 700.001, 628.147 700.170, 627.530 701.750 M 714 749.500 L 714 799 740.840 799 C 764.308 799, 768.652 798.751, 775.415 797.022 C 797.092 791.478, 806.903 778.621, 808.646 753.475 C 810.119 732.226, 802.289 714.374, 788.113 706.658 C 777.781 701.035, 770.434 700, 740.840 700 L 714 700 714 749.500 M 826.015 732.250 C 826.032 768.758, 826.698 773.907, 832.549 782.752 C 841.036 795.583, 858.064 801.943, 880.500 800.663 C 899.851 799.559, 912.679 793.229, 919.642 781.348 C 924.540 772.989, 924.975 769.077, 924.988 733.250 L 925 700 909 700 L 893 700 893 731.788 C 893 762.782, 892.944 763.686, 890.750 767.980 C 887.266 774.799, 884.220 776.500, 875.500 776.500 C 866.780 776.500, 863.734 774.799, 860.250 767.980 C 858.056 763.686, 858 762.782, 858 731.788 L 858 700 842 700 L 826 700 826.015 732.250 M 947 749.500 L 947 799 988.500 799 L 1030 799 1030 786.517 L 1030 774.034 1004.250 773.767 L 978.500 773.500 978.238 736.750 L 977.975 700 962.488 700 L 947 700 947 749.500 M 1092 749.500 L 1092 799 1108 799 L 1124 799 1124 749.500 L 1124 700 1108 700 L 1092 700 1092 749.500 M 1252 749.500 L 1252 799 1293.500 799 L 1335 799 1335 786.500 L 1335 774 1309.500 774 L 1284 774 1284 737 L 1284 700 1268 700 L 1252 700 1252 749.500 M 1374.482 701.250 C 1358.315 745.658, 1339.976 795.936, 1339.466 797.250 C 1338.835 798.873, 1339.978 799, 1355.249 799 L 1371.713 799 1373.643 792.250 L 1375.573 785.500 1393.016 785.500 L 1410.459 785.500 1412.479 792.244 L 1414.500 798.988 1431.323 798.994 C 1445.098 798.999, 1448.088 798.751, 1447.823 797.624 C 1447.645 796.867, 1439.625 774.600, 1430 748.143 L 1412.500 700.039 1393.719 700.019 C 1379.588 700.005, 1374.825 700.310, 1374.482 701.250 M 1458 749.500 L 1458 799 1473 799 L 1488 799 1488 778.174 C 1488 766.719, 1487.513 752.506, 1486.917 746.590 C 1486.322 740.673, 1486.024 735.642, 1486.256 735.411 C 1486.488 735.179, 1489.039 743.654, 1491.926 754.245 C 1494.814 764.835, 1498.776 779.237, 1500.731 786.250 L 1504.286 799 1516.893 798.995 L 1529.500 798.990 1538.428 766.006 C 1543.338 747.865, 1547.505 733.171, 1547.686 733.353 C 1547.868 733.535, 1547.571 737.917, 1547.026 743.092 C 1546.481 748.266, 1546.027 762.962, 1546.017 775.750 L 1546 799 1562 799 L 1578 799 1578 749.500 L 1578 700 1556.047 700 L 1534.094 700 1533.211 703.250 C 1532.725 705.038, 1529.488 717.525, 1526.017 731 C 1522.547 744.475, 1519.435 755.811, 1519.103 756.191 C 1518.772 756.571, 1515.173 744.084, 1511.106 728.441 L 1503.713 700 1480.856 700 L 1458 700 1458 749.500 M 288 731.395 L 288 741 299.050 741 C 311.931 741, 315.242 739.828, 316.947 734.661 C 318.245 730.727, 317.303 727.467, 314.010 724.500 C 312.110 722.788, 310.077 722.449, 299.895 722.145 L 288 721.789 288 731.395 M 746 749.500 L 746 775 754.343 775 C 764.724 775, 770.237 772.532, 773.423 766.460 C 775.216 763.041, 775.500 760.724, 775.500 749.500 C 775.500 738.340, 775.209 735.934, 773.442 732.500 C 770.344 726.478, 764.761 724, 754.288 724 L 746 724 746 749.500 M 410.148 737.655 C 405.821 751.870, 403 761.620, 403 762.358 C 403 762.711, 407.755 763, 413.567 763 C 423.175 763, 424.085 762.841, 423.583 761.250 C 423.280 760.288, 421.003 752.566, 418.523 744.091 C 416.043 735.615, 413.819 728.485, 413.579 728.246 C 413.340 728.007, 411.796 732.241, 410.148 737.655 M 645.572 729.107 C 643.774 734.381, 636 761.017, 636 761.903 C 636 762.630, 639.578 763, 646.607 763 C 655.156 763, 657.112 762.735, 656.690 761.636 C 656.402 760.885, 654.062 753.123, 651.488 744.386 C 648.915 735.649, 646.638 728.323, 646.429 728.107 C 646.219 727.891, 645.833 728.341, 645.572 729.107 M 1392.812 728.549 C 1391.566 730.685, 1382.698 762.031, 1383.198 762.532 C 1383.496 762.829, 1388.235 762.944, 1393.729 762.786 L 1403.719 762.500 1398.855 746 C 1396.181 736.925, 1393.851 729.072, 1393.679 728.549 C 1393.481 727.948, 1393.162 727.948, 1392.812 728.549" stroke="none" fill="#fbfbfb" fill-rule="evenodd"/></svg>